<svg xmlns="http://www.w3.org/2000/svg" width="16" height="16"><path fill="#666" d="M11.015 2H4.93c-.885 0-1.659.276-2.156.774C2.276 3.272 2 4.046 2 4.931v6.082c0 .885.276 1.66.83 2.213.553.497 1.272.774 2.154.774h6.03c.885 0 1.66-.277 2.156-.774.554-.498.83-1.272.83-2.157V4.986c0-.885-.276-1.603-.774-2.157C12.673 2.276 11.954 2 11.015 2zm4.984 9.308c0 1.384-.482 2.587-1.327 3.429-.845.842-2.054 1.263-3.382 1.263H4.71c-1.328 0-2.538-.421-3.383-1.263C.422 13.895 0 12.692 0 11.308V4.692C0 1.925 1.872 0 4.71 0h6.641c1.389 0 2.535.481 3.38 1.323.847.842 1.268 1.986 1.268 3.369zM8 10a2 2 0 10.002-4A2 2 0 008 10zm-.028 2C5.753 12 4 10.177 4 8c0-2.235 1.812-4 3.97-4C10.13 4 12 5.765 12 8c0 2.235-1.811 4-4.03 4zm4.03-7A.986.986 0 0111 4c0-.562.436-1 1-1 .564 0 1 .438 1 1 0 .563-.436 1-1 1z"/></svg>